<svg width="100" height="100" viewBox="0 0 100 100" fill="none" xmlns="http://www.w3.org/2000/svg">
<rect y="20" width="80" height="80" rx="4" fill="black"/>
<rect x="10" y="10" width="80" height="80" rx="4" fill="#FFF3B7"/>
<rect x="21" y="1" width="78" height="78" rx="3" stroke="black" stroke-width="2" stroke-dasharray="6 6"/>
<path d="M29.12 69.58V68.208C29.12 67.928 29.26 67.788 29.54 67.788H30.996V53.228H29.54C29.26 53.228 29.12 53.088 29.12 52.808V51.408C29.12 51.128 29.26 50.988 29.54 50.988C31.9293 50.876 33.9173 50.82 35.504 50.82C40.3573 50.82 42.784 52.556 42.784 56.028C42.784 57.2413 42.476 58.3147 41.86 59.248C41.244 60.1627 40.4227 60.8627 39.396 61.348L42.672 67.788H44.408C44.688 67.788 44.828 67.928 44.828 68.208V69.58C44.828 69.86 44.688 70 44.408 70H40.712C40.432 70 40.2267 69.8787 40.096 69.636L36.288 62.104H35.728C35.1307 62.104 34.5987 62.076 34.132 62.02V67.788H35.896C36.176 67.788 36.316 67.928 36.316 68.208V69.58C36.316 69.86 36.176 70 35.896 70H29.54C29.26 70 29.12 69.86 29.12 69.58ZM34.132 53.144V59.892C34.2813 59.9107 34.496 59.92 34.776 59.92C36.288 59.92 37.464 59.6213 38.304 59.024C39.144 58.4267 39.564 57.5307 39.564 56.336C39.564 54.208 38.0893 53.144 35.14 53.144H34.132ZM46.3739 69.58V68.208C46.3739 67.928 46.5139 67.788 46.7939 67.788H48.2499V53.228H46.7939C46.5139 53.228 46.3739 53.088 46.3739 52.808V51.408C46.3739 51.128 46.5139 50.988 46.7939 50.988C49.1832 50.876 51.1339 50.82 52.6459 50.82C57.6112 50.82 60.0939 52.64 60.0939 56.28C60.0939 58.1653 59.4872 59.6587 58.2739 60.76C57.0606 61.8613 55.4086 62.412 53.3179 62.412C52.4966 62.412 51.8526 62.384 51.3859 62.328V67.788H53.7099C53.9899 67.788 54.1299 67.928 54.1299 68.208V69.58C54.1299 69.86 53.9899 70 53.7099 70H46.7939C46.5139 70 46.3739 69.86 46.3739 69.58ZM51.3859 53.144V60.172C51.5539 60.1907 51.9832 60.2 52.6739 60.2C55.4739 60.2 56.8739 58.9587 56.8739 56.476C56.8739 55.58 56.6406 54.88 56.1739 54.376C55.7259 53.8533 55.1939 53.5173 54.5779 53.368C53.9806 53.2187 53.2526 53.144 52.3939 53.144H51.3859ZM63.3649 69.972C62.9915 70.3453 62.4782 70.532 61.8249 70.532C61.1715 70.532 60.6582 70.3547 60.2849 70C59.9115 69.6267 59.7249 69.1693 59.7249 68.628C59.7249 68.068 59.9209 67.6013 60.3129 67.228C60.7049 66.8547 61.2089 66.668 61.8249 66.668C62.4409 66.668 62.9449 66.8453 63.3369 67.2C63.7289 67.5547 63.9249 68.012 63.9249 68.572C63.9249 69.132 63.7382 69.5987 63.3649 69.972ZM71.8852 56.56V71.148C71.8852 74.8627 70.2332 76.72 66.9292 76.72C65.5105 76.72 64.3905 76.524 63.5692 76.132C63.4012 76.0387 63.3172 75.936 63.3172 75.824C63.3172 75.7307 63.3265 75.6467 63.3452 75.572L63.9052 74.032C63.9985 73.7893 64.1759 73.7147 64.4372 73.808C65.0532 74.032 65.7065 74.144 66.3972 74.144C67.9652 74.144 68.7492 73.052 68.7492 70.868V58.436H67.2372C66.9572 58.436 66.8172 58.296 66.8172 58.016V56.56C66.8172 56.28 66.9572 56.14 67.2372 56.14H71.4652C71.7452 56.14 71.8852 56.28 71.8852 56.56ZM68.4972 53.648C68.1425 53.2747 67.9652 52.7987 67.9652 52.22C67.9652 51.6413 68.1425 51.1653 68.4972 50.792C68.8705 50.4 69.3559 50.204 69.9532 50.204C70.5692 50.204 71.0545 50.4 71.4092 50.792C71.7825 51.1653 71.9692 51.6413 71.9692 52.22C71.9692 52.7987 71.7825 53.2747 71.4092 53.648C71.0359 54.0213 70.5412 54.208 69.9252 54.208C69.3279 54.208 68.8519 54.0213 68.4972 53.648ZM75.068 60.144C75.068 58.912 75.544 57.8853 76.496 57.064C77.448 56.2427 78.652 55.832 80.108 55.832C81.564 55.832 82.824 56 83.888 56.336C84.1493 56.4107 84.28 56.5787 84.28 56.84V59.808C84.28 60.088 84.14 60.228 83.86 60.228H82.236C81.9373 60.228 81.816 60.088 81.872 59.808L82.012 58.38C81.452 58.0813 80.836 57.932 80.164 57.932C78.6707 57.932 77.924 58.4547 77.924 59.5C77.924 60.0413 78.1667 60.4707 78.652 60.788C79.1373 61.1053 79.7253 61.3667 80.416 61.572C81.1067 61.7587 81.7973 61.9827 82.488 62.244C83.1973 62.4867 83.7947 62.916 84.28 63.532C84.7653 64.1293 85.008 64.8947 85.008 65.828C85.008 67.2467 84.5133 68.3573 83.524 69.16C82.5347 69.944 81.144 70.336 79.352 70.336C78.1013 70.336 76.7853 70.1493 75.404 69.776C75.1613 69.7013 75.04 69.524 75.04 69.244V66.276C75.04 65.996 75.18 65.856 75.46 65.856H77.084C77.364 65.856 77.4947 65.996 77.476 66.276L77.392 67.732C77.896 68.1053 78.6147 68.292 79.548 68.292C81.2093 68.292 82.04 67.704 82.04 66.528C82.04 65.9307 81.7973 65.464 81.312 65.128C80.8453 64.7733 80.2667 64.5027 79.576 64.316C78.904 64.1293 78.2227 63.924 77.532 63.7C76.8413 63.4573 76.2533 63.0467 75.768 62.468C75.3013 61.8707 75.068 61.096 75.068 60.144Z" fill="black"/>
</svg>
